<svg width="200" height="200" viewBox="0 0 200 200" fill="none" xmlns="http://www.w3.org/2000/svg">
<mask id="path-1-outside-1_127_379" maskUnits="userSpaceOnUse" x="0.5" y="5.5" width="199" height="189" fill="black">
<rect fill="white" x="0.5" y="5.5" width="199" height="189"/>
<path fill-rule="evenodd" clip-rule="evenodd" d="M106.853 12.9492C96.558 11.5939 86.0926 13.3217 76.7799 17.9142C67.4672 22.5067 59.7255 29.7576 54.5337 38.75L62.3216 43.2464C58.6191 49.6455 56.5 57.0753 56.5 65C56.5 75.1475 59.9746 84.4836 65.7991 91.8832C63.902 91.6304 61.9662 91.5 60 91.5C43.9003 91.5 29.8435 100.246 22.3216 113.246L14.5337 108.75C9.34193 117.742 6.93332 128.072 7.61243 138.434C8.29155 148.795 12.0279 158.722 18.349 166.96C24.6701 175.198 33.292 181.376 43.1245 184.714C52.9569 188.052 63.5583 188.399 73.588 185.711C83.6177 183.024 92.6253 177.422 99.4716 169.616C99.6494 169.413 99.8256 169.209 100 169.004C103.13 172.686 106.771 175.938 110.833 178.652C119.466 184.421 129.617 187.5 140 187.5L140 178.5C164.024 178.5 183.5 159.024 183.5 135L192.5 135C192.5 124.617 189.421 114.466 183.652 105.833C177.883 97.199 169.684 90.4699 160.091 86.4963C156.569 85.0376 152.918 83.9743 149.203 83.3128C149.38 82.8368 149.55 82.3576 149.714 81.8756C153.052 72.0431 153.399 61.4417 150.711 51.412C148.024 41.3823 142.422 32.3748 134.616 25.5285C126.809 18.6821 117.147 14.3045 106.853 12.9492ZM87.5 134.961C87.494 130.772 86.5309 126.623 84.664 122.837C82.2584 117.959 78.4603 113.904 73.75 111.184L74.0615 110.645C73.9575 110.586 73.8537 110.526 73.75 110.466L77.9415 103.207C72.6431 100.21 66.5213 98.5 60 98.5C46.4911 98.5 34.6963 105.839 28.3848 116.747L36.1843 121.25C33.4648 125.96 32.2032 131.371 32.5589 136.799C32.9146 142.226 34.8718 147.426 38.1828 151.741C41.4939 156.056 46.0101 159.292 51.1604 161.041C56.3108 162.789 61.8639 162.971 67.1175 161.563C72.3712 160.155 77.0894 157.221 80.6756 153.132C84.2618 149.043 86.5548 143.982 87.2648 138.589C87.4203 137.408 87.4983 136.222 87.5 135.039C87.5001 135.013 87.5001 134.987 87.5 134.961ZM112.5 134.956C112.503 133.178 112.678 131.396 113.028 129.635C114.09 124.301 116.709 119.401 120.555 115.555C124.401 111.709 129.301 109.09 134.635 108.028C139.97 106.967 145.499 107.512 150.524 109.593C155.549 111.675 159.844 115.199 162.865 119.722C165.887 124.244 167.5 129.561 167.5 135L176.5 135C176.5 155.158 160.158 171.5 140 171.5L140 162.5C134.561 162.5 129.244 160.887 124.722 157.865C120.199 154.844 116.675 150.549 114.593 145.524C113.21 142.185 112.506 138.623 112.5 135.044C112.5 135.015 112.5 134.985 112.5 134.956ZM68.3848 46.747L76.1843 51.25C78.9038 46.5397 82.959 42.7416 87.8371 40.336C92.7152 37.9304 98.197 37.0254 103.589 37.7353C108.982 38.4452 114.043 40.7383 118.132 44.3244C122.221 47.9106 125.155 52.6289 126.563 57.8825C127.971 63.1362 127.789 68.6893 126.041 73.8396C124.292 78.99 121.056 83.5062 116.741 86.8173C112.426 90.1283 107.226 92.0854 101.799 92.4412C96.3713 92.7969 90.9603 91.5352 86.25 88.8157L81.747 96.6152C70.8388 90.3038 63.5 78.5089 63.5 65C63.5 58.3505 65.2781 52.1163 68.3848 46.747Z"/>
</mask>
<path fill-rule="evenodd" clip-rule="evenodd" d="M106.853 12.9492C96.558 11.5939 86.0926 13.3217 76.7799 17.9142C67.4672 22.5067 59.7255 29.7576 54.5337 38.75L62.3216 43.2464C58.6191 49.6455 56.5 57.0753 56.5 65C56.5 75.1475 59.9746 84.4836 65.7991 91.8832C63.902 91.6304 61.9662 91.5 60 91.5C43.9003 91.5 29.8435 100.246 22.3216 113.246L14.5337 108.75C9.34193 117.742 6.93332 128.072 7.61243 138.434C8.29155 148.795 12.0279 158.722 18.349 166.96C24.6701 175.198 33.292 181.376 43.1245 184.714C52.9569 188.052 63.5583 188.399 73.588 185.711C83.6177 183.024 92.6253 177.422 99.4716 169.616C99.6494 169.413 99.8256 169.209 100 169.004C103.13 172.686 106.771 175.938 110.833 178.652C119.466 184.421 129.617 187.5 140 187.5L140 178.5C164.024 178.5 183.5 159.024 183.5 135L192.5 135C192.5 124.617 189.421 114.466 183.652 105.833C177.883 97.199 169.684 90.4699 160.091 86.4963C156.569 85.0376 152.918 83.9743 149.203 83.3128C149.38 82.8368 149.55 82.3576 149.714 81.8756C153.052 72.0431 153.399 61.4417 150.711 51.412C148.024 41.3823 142.422 32.3748 134.616 25.5285C126.809 18.6821 117.147 14.3045 106.853 12.9492ZM87.5 134.961C87.494 130.772 86.5309 126.623 84.664 122.837C82.2584 117.959 78.4603 113.904 73.75 111.184L74.0615 110.645C73.9575 110.586 73.8537 110.526 73.75 110.466L77.9415 103.207C72.6431 100.21 66.5213 98.5 60 98.5C46.4911 98.5 34.6963 105.839 28.3848 116.747L36.1843 121.25C33.4648 125.96 32.2032 131.371 32.5589 136.799C32.9146 142.226 34.8718 147.426 38.1828 151.741C41.4939 156.056 46.0101 159.292 51.1604 161.041C56.3108 162.789 61.8639 162.971 67.1175 161.563C72.3712 160.155 77.0894 157.221 80.6756 153.132C84.2618 149.043 86.5548 143.982 87.2648 138.589C87.4203 137.408 87.4983 136.222 87.5 135.039C87.5001 135.013 87.5001 134.987 87.5 134.961ZM112.5 134.956C112.503 133.178 112.678 131.396 113.028 129.635C114.09 124.301 116.709 119.401 120.555 115.555C124.401 111.709 129.301 109.09 134.635 108.028C139.97 106.967 145.499 107.512 150.524 109.593C155.549 111.675 159.844 115.199 162.865 119.722C165.887 124.244 167.5 129.561 167.5 135L176.5 135C176.5 155.158 160.158 171.5 140 171.5L140 162.5C134.561 162.5 129.244 160.887 124.722 157.865C120.199 154.844 116.675 150.549 114.593 145.524C113.21 142.185 112.506 138.623 112.5 135.044C112.5 135.015 112.5 134.985 112.5 134.956ZM68.3848 46.747L76.1843 51.25C78.9038 46.5397 82.959 42.7416 87.8371 40.336C92.7152 37.9304 98.197 37.0254 103.589 37.7353C108.982 38.4452 114.043 40.7383 118.132 44.3244C122.221 47.9106 125.155 52.6289 126.563 57.8825C127.971 63.1362 127.789 68.6893 126.041 73.8396C124.292 78.99 121.056 83.5062 116.741 86.8173C112.426 90.1283 107.226 92.0854 101.799 92.4412C96.3713 92.7969 90.9603 91.5352 86.25 88.8157L81.747 96.6152C70.8388 90.3038 63.5 78.5089 63.5 65C63.5 58.3505 65.2781 52.1163 68.3848 46.747Z" fill="#333333"/>
<path d="M76.7799 17.9142L79.8759 24.1923L79.8759 24.1923L76.7799 17.9142ZM106.853 12.9492L105.939 19.8893L105.939 19.8893L106.853 12.9492ZM54.5337 38.75L48.4715 35.25L44.9715 41.3122L51.0337 44.8122L54.5337 38.75ZM62.3216 43.2464L68.3805 46.7521L71.8895 40.6875L65.8216 37.1842L62.3216 43.2464ZM65.7991 91.8832L64.8747 98.8219L81.9606 101.098L71.2995 87.5536L65.7991 91.8832ZM22.3216 113.246L18.8216 119.309L24.8781 122.805L28.3805 116.752L22.3216 113.246ZM14.5337 108.75L18.0337 102.688L11.9715 99.1879L8.47151 105.25L14.5337 108.75ZM7.61243 138.434L14.5974 137.976L14.5974 137.976L7.61243 138.434ZM18.349 166.96L23.9025 162.699L23.9024 162.699L18.349 166.96ZM43.1245 184.714L45.3745 178.085L45.3745 178.085L43.1245 184.714ZM73.588 185.711L71.7763 178.95L71.7763 178.95L73.588 185.711ZM99.4716 169.616L94.2088 165L94.2087 165L99.4716 169.616ZM100 169.004L105.333 164.47L100 158.196L94.6667 164.47L100 169.004ZM110.833 178.652L114.722 172.832L114.722 172.832L110.833 178.652ZM140 187.5V194.5H147L147 187.5L140 187.5ZM140 178.5V171.5H133L133 178.5L140 178.5ZM183.5 135L183.5 128L176.5 128V135H183.5ZM192.5 135L192.5 142L199.5 142V135H192.5ZM183.652 105.833L177.832 109.722L177.832 109.722L183.652 105.833ZM160.091 86.4963L162.77 80.0292L162.77 80.0292L160.091 86.4963ZM149.203 83.3128L142.642 80.8712L139.716 88.7339L147.976 90.2045L149.203 83.3128ZM149.714 81.8756L143.085 79.6255L143.085 79.6256L149.714 81.8756ZM150.711 51.412L143.95 53.2238L143.95 53.2238L150.711 51.412ZM134.616 25.5285L130 30.7913L130 30.7913L134.616 25.5285ZM84.664 122.837L90.9421 119.741L90.9421 119.741L84.664 122.837ZM87.5 134.961L80.5 134.971L80.5 134.971L87.5 134.961ZM73.75 111.184L67.6879 107.684L64.1878 113.746L70.25 117.247L73.75 111.184ZM74.0615 110.645L80.1237 114.145L83.6478 108.041L77.5199 104.559L74.0615 110.645ZM73.75 110.466L67.6878 106.966L64.1879 113.029L70.25 116.529L73.75 110.466ZM77.9415 103.207L84.0036 106.707L87.535 100.59L81.3873 97.1134L77.9415 103.207ZM28.3848 116.747L22.3259 113.241L18.817 119.306L24.8848 122.809L28.3848 116.747ZM36.1843 121.25L42.2465 124.75L45.7465 118.688L39.6843 115.188L36.1843 121.25ZM32.5589 136.799L39.5439 136.341L39.5439 136.341L32.5589 136.799ZM38.1828 151.741L43.7363 147.48L43.7363 147.48L38.1828 151.741ZM67.1175 161.563L65.3058 154.802L65.3058 154.802L67.1175 161.563ZM80.6756 153.132L85.9385 157.747L85.9385 157.747L80.6756 153.132ZM87.2648 138.589L94.2049 139.503L94.2049 139.503L87.2648 138.589ZM87.5 135.039L80.5 135.029L80.5 135.029L87.5 135.039ZM113.028 129.635L119.894 131.001L119.894 131.001L113.028 129.635ZM112.5 134.956L105.5 134.945L105.5 134.953L105.5 134.962L112.5 134.956ZM134.635 108.028L136.001 114.894L136.001 114.894L134.635 108.028ZM150.524 109.593L147.845 116.06L147.845 116.06L150.524 109.593ZM162.865 119.722L168.686 115.833L168.686 115.833L162.865 119.722ZM167.5 135H160.5V142L167.5 142L167.5 135ZM176.5 135H183.5V128L176.5 128L176.5 135ZM140 171.5L133 171.5L133 178.5H140V171.5ZM140 162.5L147 162.5L147 155.5H140V162.5ZM124.722 157.865L120.833 163.686L120.833 163.686L124.722 157.865ZM114.593 145.524L121.06 142.845L121.06 142.845L114.593 145.524ZM112.5 135.044L105.5 135.038L105.5 135.047L105.5 135.055L112.5 135.044ZM76.1843 51.25L72.6843 57.3122L78.7465 60.8122L82.2465 54.75L76.1843 51.25ZM68.3848 46.747L71.8848 40.6848L65.8283 37.1881L62.3259 43.2413L68.3848 46.747ZM87.8371 40.336L84.7411 34.0579L84.7411 34.0579L87.8371 40.336ZM118.132 44.3244L122.747 39.0616L122.747 39.0616L118.132 44.3244ZM126.563 57.8825L119.801 59.6942L119.802 59.6942L126.563 57.8825ZM126.041 73.8396L132.669 76.0897L132.669 76.0897L126.041 73.8396ZM116.741 86.8173L112.48 81.2638L112.48 81.2638L116.741 86.8173ZM101.799 92.4412L102.256 99.4262L102.256 99.4262L101.799 92.4412ZM86.25 88.8157L89.75 82.7536L83.6878 79.2536L80.1878 85.3157L86.25 88.8157ZM81.747 96.6152L78.2413 102.674L84.3059 106.183L87.8092 100.115L81.747 96.6152ZM79.8759 24.1923C87.9469 20.2122 97.0169 18.7147 105.939 19.8893L107.766 6.00907C96.099 4.47304 84.2382 6.43126 73.6838 11.6361L79.8759 24.1923ZM60.5959 42.25C65.0954 34.4566 71.8049 28.1725 79.8759 24.1923L73.6838 11.6361C63.1295 16.841 54.3555 25.0587 48.4715 35.25L60.5959 42.25ZM65.8216 37.1842L58.0337 32.6879L51.0337 44.8122L58.8216 49.3086L65.8216 37.1842ZM63.5 65C63.5 58.3389 65.278 52.1143 68.3805 46.7521L56.2627 39.7407C51.9603 47.1767 49.5 55.8117 49.5 65H63.5ZM71.2995 87.5536C66.4118 81.344 63.5 73.5218 63.5 65H49.5C49.5 76.7733 53.5375 87.6231 60.2986 96.2127L71.2995 87.5536ZM60 98.5C61.6563 98.5 63.2832 98.6099 64.8747 98.8219L66.7234 84.9445C64.5207 84.651 62.2762 84.5 60 84.5V98.5ZM28.3805 116.752C34.7025 105.826 46.4999 98.5 60 98.5V84.5C41.3008 84.5 24.9844 94.6668 16.2627 109.741L28.3805 116.752ZM11.0337 114.812L18.8216 119.309L25.8216 107.184L18.0337 102.688L11.0337 114.812ZM14.5974 137.976C14.0089 128.996 16.0963 120.043 20.5959 112.25L8.47151 105.25C2.58752 115.441 -0.142245 127.149 0.627419 138.892L14.5974 137.976ZM23.9024 162.699C18.4242 155.559 15.186 146.956 14.5974 137.976L0.627419 138.892C1.39708 150.634 5.6316 161.885 12.7955 171.221L23.9024 162.699ZM45.3745 178.085C36.8531 175.193 29.3807 169.838 23.9025 162.699L12.7955 171.221C19.9594 180.558 29.7309 187.56 40.8744 191.342L45.3745 178.085ZM71.7763 178.95C63.0839 181.279 53.896 180.978 45.3745 178.085L40.8744 191.342C52.0178 195.125 64.0328 195.518 75.3998 192.473L71.7763 178.95ZM94.2087 165C88.2752 171.766 80.4687 176.621 71.7763 178.95L75.3998 192.473C86.7668 189.427 96.9753 183.079 104.734 174.231L94.2087 165ZM94.6667 164.47C94.5154 164.648 94.3628 164.825 94.2088 165L104.734 174.231C104.936 174.001 105.136 173.77 105.333 173.538L94.6667 164.47ZM114.722 172.832C111.201 170.48 108.046 167.661 105.333 164.47L94.6667 173.538C98.2142 177.711 102.34 181.396 106.944 184.472L114.722 172.832ZM140 180.5C131.001 180.5 122.204 177.832 114.722 172.832L106.944 184.472C116.728 191.01 128.232 194.5 140 194.5V180.5ZM133 178.5L133 187.5L147 187.5L147 178.5L133 178.5ZM176.5 135C176.5 155.158 160.158 171.5 140 171.5V185.5C167.89 185.5 190.5 162.89 190.5 135H176.5ZM192.5 128L183.5 128L183.5 142L192.5 142L192.5 128ZM177.832 109.722C182.832 117.204 185.5 126.001 185.5 135H199.5C199.5 123.232 196.01 111.728 189.472 101.944L177.832 109.722ZM157.412 92.9635C165.726 96.4073 172.832 102.239 177.832 109.722L189.472 101.944C182.935 92.1589 173.642 84.5326 162.77 80.0292L157.412 92.9635ZM147.976 90.2045C151.195 90.7777 154.36 91.6992 157.412 92.9635L162.77 80.0292C158.779 78.376 154.64 77.1708 150.43 76.4212L147.976 90.2045ZM143.085 79.6256C142.944 80.0433 142.796 80.4586 142.642 80.8712L155.763 85.7544C155.964 85.2149 156.157 84.672 156.342 84.1256L143.085 79.6256ZM143.95 53.2238C146.279 61.9162 145.978 71.1041 143.085 79.6255L156.342 84.1257C160.125 72.9822 160.518 60.9673 157.473 49.6003L143.95 53.2238ZM130 30.7913C136.766 36.7248 141.621 44.5314 143.95 53.2238L157.473 49.6003C154.427 38.2333 148.079 28.0247 139.231 20.2656L130 30.7913ZM105.939 19.8893C114.861 21.0639 123.234 24.8578 130 30.7913L139.231 20.2656C130.383 12.5064 119.434 7.5451 107.766 6.00907L105.939 19.8893ZM78.3859 125.933C79.7775 128.755 80.4955 131.848 80.5 134.971L94.5 134.951C94.4925 129.696 93.2842 124.49 90.9421 119.741L78.3859 125.933ZM70.25 117.247C73.7613 119.274 76.5926 122.297 78.3859 125.933L90.9421 119.741C87.9242 113.621 83.1593 108.534 77.25 105.122L70.25 117.247ZM67.9994 107.145L67.6879 107.684L79.8122 114.684L80.1237 114.145L67.9994 107.145ZM70.25 116.529C70.3674 116.596 70.4852 116.664 70.6031 116.731L77.5199 104.559C77.4299 104.508 77.3399 104.456 77.2501 104.404L70.25 116.529ZM71.8793 99.7066L67.6878 106.966L79.8122 113.966L84.0036 106.707L71.8793 99.7066ZM60 105.5C65.2824 105.5 70.2209 106.882 74.4956 109.3L81.3873 97.1134C75.0653 93.5382 67.7601 91.5 60 91.5V105.5ZM34.4437 120.253C39.5553 111.418 49.0907 105.5 60 105.5V91.5C43.8915 91.5 29.8372 100.259 22.3259 113.241L34.4437 120.253ZM39.6843 115.188L31.8848 110.685L24.8848 122.809L32.6843 127.312L39.6843 115.188ZM39.5439 136.341C39.2787 132.295 40.2192 128.261 42.2465 124.75L30.1221 117.75C26.7104 123.659 25.1276 130.448 25.5739 137.256L39.5439 136.341ZM43.7363 147.48C41.268 144.263 39.8091 140.387 39.5439 136.341L25.5739 137.256C26.0202 144.065 28.4755 150.589 32.6293 156.002L43.7363 147.48ZM53.4105 154.412C49.5712 153.109 46.2045 150.696 43.7363 147.48L32.6293 156.002C36.7832 161.416 42.449 165.476 48.9104 167.669L53.4105 154.412ZM65.3058 154.802C61.3895 155.851 57.2499 155.715 53.4105 154.412L48.9104 167.669C55.3717 169.862 62.3383 170.091 68.9293 168.324L65.3058 154.802ZM75.4127 148.517C72.7394 151.565 69.2222 153.752 65.3058 154.802L68.9293 168.324C75.5202 166.558 81.4395 162.878 85.9385 157.747L75.4127 148.517ZM80.3246 137.676C79.7954 141.696 78.0861 145.468 75.4127 148.517L85.9385 157.747C90.4375 152.617 93.3142 146.268 94.2049 139.503L80.3246 137.676ZM80.5 135.029C80.4988 135.911 80.4406 136.795 80.3246 137.676L94.2049 139.503C94.4 138.021 94.4979 136.533 94.5 135.049L80.5 135.029ZM80.5 134.971C80.5001 134.99 80.5001 135.01 80.5 135.029L94.5 135.049C94.5001 135.016 94.5001 134.983 94.5 134.95L80.5 134.971ZM106.163 128.269C105.724 130.478 105.504 132.714 105.5 134.945L119.5 134.967C119.502 133.642 119.633 132.313 119.894 131.001L106.163 128.269ZM115.605 110.605C110.78 115.43 107.494 121.577 106.163 128.269L119.894 131.001C120.685 127.024 122.637 123.371 125.504 120.504L115.605 110.605ZM133.269 101.163C126.577 102.494 120.43 105.78 115.605 110.605L125.504 120.504C128.371 117.637 132.024 115.685 136.001 114.894L133.269 101.163ZM153.203 103.126C146.899 100.515 139.962 99.8317 133.269 101.163L136.001 114.894C139.977 114.103 144.099 114.509 147.845 116.06L153.203 103.126ZM168.686 115.833C164.895 110.159 159.507 105.737 153.203 103.126L147.845 116.06C151.591 117.612 154.793 120.24 157.045 123.611L168.686 115.833ZM174.5 135C174.5 128.177 172.477 121.506 168.686 115.833L157.045 123.611C159.298 126.982 160.5 130.946 160.5 135H174.5ZM176.5 128L167.5 128L167.5 142L176.5 142L176.5 128ZM140 178.5C164.024 178.5 183.5 159.024 183.5 135H169.5C169.5 151.292 156.292 164.5 140 164.5V178.5ZM133 162.5L133 171.5L147 171.5L147 162.5L133 162.5ZM120.833 163.686C126.506 167.477 133.177 169.5 140 169.5V155.5C135.946 155.5 131.982 154.298 128.611 152.045L120.833 163.686ZM108.126 148.203C110.737 154.507 115.159 159.895 120.833 163.686L128.611 152.045C125.24 149.793 122.612 146.591 121.06 142.845L108.126 148.203ZM105.5 135.055C105.507 139.545 106.391 144.014 108.126 148.203L121.06 142.845C120.029 140.356 119.504 137.701 119.5 135.033L105.5 135.055ZM105.5 134.962C105.5 134.987 105.5 135.013 105.5 135.038L119.5 135.049C119.5 135.016 119.5 134.984 119.5 134.951L105.5 134.962ZM79.6843 45.1879L71.8848 40.6848L64.8848 52.8092L72.6843 57.3122L79.6843 45.1879ZM84.7411 34.0579C78.6213 37.0759 73.5339 41.8408 70.1222 47.75L82.2465 54.75C84.2738 51.2387 87.2967 48.4074 90.9331 46.6141L84.7411 34.0579ZM104.503 30.7952C97.7381 29.9046 90.8608 31.04 84.7411 34.0579L90.9331 46.6141C94.5695 44.8209 98.656 44.1462 102.676 44.6754L104.503 30.7952ZM122.747 39.0616C117.617 34.5626 111.268 31.6858 104.503 30.7952L102.676 44.6754C106.696 45.2046 110.468 46.914 113.517 49.5873L122.747 39.0616ZM133.324 56.0708C131.558 49.4798 127.878 43.5606 122.747 39.0616L113.517 49.5873C116.565 52.2607 118.752 55.7779 119.801 59.6942L133.324 56.0708ZM132.669 76.0897C134.862 69.6284 135.091 62.6617 133.324 56.0708L119.802 59.6942C120.851 63.6106 120.715 67.7502 119.412 71.5896L132.669 76.0897ZM121.002 92.3707C126.416 88.2169 130.476 82.551 132.669 76.0897L119.412 71.5895C118.109 75.4289 115.696 78.7956 112.48 81.2638L121.002 92.3707ZM102.256 99.4262C109.065 98.9799 115.589 96.5246 121.002 92.3707L112.48 81.2638C109.263 83.732 105.387 85.191 101.341 85.4561L102.256 99.4262ZM82.75 94.8779C88.6593 98.2896 95.4476 99.8724 102.256 99.4262L101.341 85.4561C97.2949 85.7213 93.2613 84.7808 89.75 82.7536L82.75 94.8779ZM87.8092 100.115L92.3122 92.3157L80.1878 85.3157L75.6848 93.1152L87.8092 100.115ZM56.5 65C56.5 81.1085 65.2594 95.1628 78.2413 102.674L85.2527 90.5563C76.4182 85.4447 70.5 75.9094 70.5 65H56.5ZM62.3259 43.2413C58.6193 49.6475 56.5 57.0869 56.5 65H70.5C70.5 59.6141 71.9369 54.5851 74.4437 50.2526L62.3259 43.2413Z" fill="white" mask="url(#path-1-outside-1_127_379)"/>
</svg>
