<svg width="850" height="850" viewBox="0 0 850 850" fill="none" xmlns="http://www.w3.org/2000/svg">
<mask id="path-1-outside-1_608_6378" maskUnits="userSpaceOnUse" x="11" y="38" width="829" height="774" fill="black">
<rect fill="white" x="11" y="38" width="829" height="774"/>
<path d="M222.975 798.828C194.575 797.228 170.675 790.728 143.775 777.228C116.575 763.428 100.975 752.128 83.375 733.428C73.975 723.528 61.975 708.128 57.475 700.328C55.975 697.628 53.675 694.028 52.375 692.328C49.075 687.828 41.675 672.528 37.675 661.728C30.375 642.328 26.775 626.728 23.975 602.228C22.675 590.628 22.675 566.128 23.975 565.328C24.475 565.028 24.975 561.928 24.975 558.628C24.975 555.228 25.375 551.128 25.975 549.428C26.475 547.728 27.875 542.328 28.975 537.328C31.375 526.328 37.775 506.528 41.675 497.828C47.875 484.028 50.475 478.928 51.575 478.528C52.075 478.228 57.975 481.128 64.575 484.928C75.875 491.428 79.375 492.728 80.275 491.128C80.675 490.328 78.875 472.028 75.375 442.128C74.375 433.728 73.875 426.528 74.275 426.228C74.675 425.828 76.875 425.428 79.175 425.428L83.375 425.328L85.775 445.828C87.075 457.128 88.375 466.628 88.875 467.128C89.275 467.528 94.475 462.528 100.575 456.028C132.775 421.228 167.075 403.328 215.075 396.228C228.575 394.228 257.575 394.828 269.975 397.328C274.075 398.128 279.775 399.128 282.475 399.428L287.475 400.128L283.875 396.228C272.975 384.528 258.775 363.928 252.975 351.328C239.375 322.028 234.175 301.428 233.275 273.328C232.475 248.728 234.275 234.328 241.175 211.328C243.375 203.728 252.675 180.128 254.275 178.128C254.975 177.228 254.675 176.828 253.375 176.828C251.875 176.828 227.375 184.028 213.775 188.528C212.475 188.928 211.775 188.028 210.875 184.928C210.175 182.428 209.975 180.428 210.575 179.928C211.075 179.528 218.475 177.028 226.975 174.428C261.875 163.728 270.975 160.428 270.975 158.828C270.975 158.028 266.475 154.028 261.075 150.028C255.675 146.028 250.275 141.728 248.975 140.328L246.775 138.028L251.075 132.128C256.675 124.528 279.375 102.228 289.475 94.4283C308.175 79.9283 333.175 67.1283 356.475 60.0283C380.175 52.8283 387.875 51.7283 417.375 51.1283C438.475 50.8283 442.775 50.9283 452.875 52.8283C478.775 57.4283 497.975 63.8283 522.475 76.2283C555.775 93.1283 584.575 119.028 603.075 148.828C609.475 159.128 621.975 185.028 625.275 194.828C632.875 217.128 636.275 237.728 636.275 262.328C636.275 297.928 630.875 326.328 618.975 352.828C616.175 358.828 613.975 364.228 613.975 364.728C613.975 365.928 617.275 366.528 627.475 367.328C639.075 368.228 658.675 372.428 672.775 376.928C704.375 387.228 737.675 408.028 758.475 430.528C780.575 454.328 795.575 476.128 803.675 496.328C812.975 519.528 820.975 554.128 820.975 571.128C820.975 576.528 822.375 575.928 802.675 577.928C796.275 578.528 790.775 579.328 790.575 579.728C790.275 580.128 796.775 589.128 804.975 599.828C820.675 620.428 827.975 630.628 827.975 631.928C827.975 633.228 820.875 637.728 819.575 637.228C818.975 636.928 814.575 631.728 809.775 625.528C804.975 619.328 799.275 612.328 797.175 609.828L793.275 605.428L792.075 612.328C788.975 629.728 777.375 665.028 773.175 669.928C772.475 670.728 769.075 676.128 765.575 682.128C750.475 707.528 727.575 729.928 701.275 745.228C696.675 747.828 692.975 750.628 692.975 751.428C692.975 752.228 695.275 757.428 697.975 763.028C700.775 768.628 702.875 773.628 702.675 774.228C701.975 775.928 688.775 782.228 677.875 786.228C649.875 796.328 607.075 800.328 574.975 795.928C548.875 792.228 516.975 781.828 499.275 771.228C474.175 756.128 447.375 732.328 432.475 711.828C427.675 705.228 423.175 699.828 422.575 699.828C421.875 699.828 418.175 704.128 414.375 709.428C399.575 730.128 388.375 741.628 369.975 755.428C361.075 762.128 342.775 773.828 341.175 773.828C340.775 773.828 336.975 775.828 332.775 778.228C319.975 785.528 302.975 791.228 280.975 795.428C273.275 796.928 242.475 799.928 237.975 799.628C236.575 799.528 229.875 799.228 222.975 798.828ZM701.875 729.728C721.875 716.728 744.075 693.728 757.275 672.028C762.675 663.128 770.975 643.628 774.775 630.728C779.775 613.828 781.375 601.828 778.775 601.828C778.075 601.928 770.275 608.428 761.475 616.328C752.675 624.328 745.175 630.828 744.675 630.828C743.475 630.828 738.075 624.428 737.975 623.028C737.975 621.328 753.775 606.928 779.275 585.428C782.375 582.728 784.975 580.228 784.975 579.728C784.975 579.228 778.375 578.828 770.175 578.828H755.475L753.675 567.128C750.075 544.028 748.175 536.428 742.575 524.428C732.775 503.028 721.375 486.628 707.575 473.728C696.575 463.428 687.675 457.428 672.275 449.528C645.575 435.828 610.175 429.928 582.175 434.428C564.775 437.128 551.875 441.828 533.475 452.028C516.475 461.428 509.375 466.728 498.175 477.928C477.475 498.628 465.975 519.828 458.875 550.328C455.875 563.328 455.075 592.128 457.375 605.028C463.275 637.328 477.975 665.828 500.975 688.828C526.175 714.128 560.475 729.328 596.975 731.528C619.275 732.828 651.475 726.728 668.875 717.828C671.075 716.728 673.375 715.828 673.975 715.828C674.475 715.828 676.675 719.328 678.775 723.628C685.075 736.428 685.975 737.828 687.775 737.828C688.675 737.828 695.075 734.228 701.875 729.728ZM272.975 728.928C304.675 720.928 324.875 709.428 345.975 687.128C365.375 666.728 381.075 636.628 385.575 611.428C387.575 600.228 387.475 567.128 385.475 555.528C381.675 534.028 372.675 512.928 360.275 496.328C350.975 483.828 334.275 467.528 323.175 459.928L313.875 453.628L319.875 442.328L325.875 430.928L323.175 429.028C317.875 425.228 304.275 419.028 294.975 416.128C258.775 404.728 231.375 403.828 195.875 412.828C168.975 419.728 142.875 433.428 121.075 452.228C111.275 460.628 98.975 474.128 98.975 476.528C98.975 478.528 102.675 478.128 122.475 474.328C132.375 472.428 141.475 470.828 142.675 470.828C144.375 470.828 144.975 471.628 145.475 474.928C145.975 477.628 145.775 479.328 145.075 479.728C144.475 480.128 131.675 482.628 116.675 485.228C84.375 490.928 81.975 491.428 81.975 493.328C81.975 494.128 87.575 497.728 94.575 501.428C101.475 505.028 107.375 508.628 107.575 509.228C107.875 509.928 106.475 513.828 104.675 517.928C98.475 531.428 92.375 553.828 89.975 571.328C86.875 593.828 92.375 622.228 105.375 650.228C116.875 675.228 139.575 699.128 164.975 713.128C174.275 718.228 195.675 726.528 204.175 728.428C216.975 731.128 224.075 731.728 244.475 731.328C260.875 731.128 265.975 730.628 272.975 728.928ZM338.975 408.228C346.575 395.028 346.275 395.228 351.275 398.428C368.275 408.928 389.075 414.528 415.075 415.528C437.575 416.428 459.075 413.028 476.175 405.828C486.175 401.728 505.675 390.128 514.075 383.328C528.075 372.028 546.875 348.828 554.675 333.328C560.275 322.228 566.275 302.128 569.475 283.828C574.375 256.128 563.575 210.828 545.475 182.828C535.875 167.828 524.275 156.828 502.975 142.328C486.875 131.428 467.675 122.928 449.375 118.728C417.175 111.328 373.775 119.028 344.375 137.328C330.675 145.928 314.275 160.128 303.875 172.628L299.475 177.928L287.275 169.328C280.675 164.628 274.875 160.828 274.475 160.828C273.275 160.828 274.775 169.728 278.875 186.528C285.575 213.928 287.375 222.828 286.375 223.828C285.875 224.228 283.875 224.928 281.875 225.328L278.375 226.028L273.975 206.628C269.875 188.028 268.175 182.628 265.975 181.328C264.575 180.428 256.075 198.828 252.175 210.928C245.975 230.028 244.475 240.928 244.575 265.328C244.575 288.728 245.475 296.028 250.475 314.628C255.275 332.628 261.475 345.728 273.075 362.828C282.675 377.028 291.375 387.328 301.375 396.328C309.775 403.928 329.575 417.828 331.975 417.828C332.875 417.828 335.875 413.628 338.975 408.228Z"/>
</mask>
<path d="M222.975 798.828C194.575 797.228 170.675 790.728 143.775 777.228C116.575 763.428 100.975 752.128 83.375 733.428C73.975 723.528 61.975 708.128 57.475 700.328C55.975 697.628 53.675 694.028 52.375 692.328C49.075 687.828 41.675 672.528 37.675 661.728C30.375 642.328 26.775 626.728 23.975 602.228C22.675 590.628 22.675 566.128 23.975 565.328C24.475 565.028 24.975 561.928 24.975 558.628C24.975 555.228 25.375 551.128 25.975 549.428C26.475 547.728 27.875 542.328 28.975 537.328C31.375 526.328 37.775 506.528 41.675 497.828C47.875 484.028 50.475 478.928 51.575 478.528C52.075 478.228 57.975 481.128 64.575 484.928C75.875 491.428 79.375 492.728 80.275 491.128C80.675 490.328 78.875 472.028 75.375 442.128C74.375 433.728 73.875 426.528 74.275 426.228C74.675 425.828 76.875 425.428 79.175 425.428L83.375 425.328L85.775 445.828C87.075 457.128 88.375 466.628 88.875 467.128C89.275 467.528 94.475 462.528 100.575 456.028C132.775 421.228 167.075 403.328 215.075 396.228C228.575 394.228 257.575 394.828 269.975 397.328C274.075 398.128 279.775 399.128 282.475 399.428L287.475 400.128L283.875 396.228C272.975 384.528 258.775 363.928 252.975 351.328C239.375 322.028 234.175 301.428 233.275 273.328C232.475 248.728 234.275 234.328 241.175 211.328C243.375 203.728 252.675 180.128 254.275 178.128C254.975 177.228 254.675 176.828 253.375 176.828C251.875 176.828 227.375 184.028 213.775 188.528C212.475 188.928 211.775 188.028 210.875 184.928C210.175 182.428 209.975 180.428 210.575 179.928C211.075 179.528 218.475 177.028 226.975 174.428C261.875 163.728 270.975 160.428 270.975 158.828C270.975 158.028 266.475 154.028 261.075 150.028C255.675 146.028 250.275 141.728 248.975 140.328L246.775 138.028L251.075 132.128C256.675 124.528 279.375 102.228 289.475 94.4283C308.175 79.9283 333.175 67.1283 356.475 60.0283C380.175 52.8283 387.875 51.7283 417.375 51.1283C438.475 50.8283 442.775 50.9283 452.875 52.8283C478.775 57.4283 497.975 63.8283 522.475 76.2283C555.775 93.1283 584.575 119.028 603.075 148.828C609.475 159.128 621.975 185.028 625.275 194.828C632.875 217.128 636.275 237.728 636.275 262.328C636.275 297.928 630.875 326.328 618.975 352.828C616.175 358.828 613.975 364.228 613.975 364.728C613.975 365.928 617.275 366.528 627.475 367.328C639.075 368.228 658.675 372.428 672.775 376.928C704.375 387.228 737.675 408.028 758.475 430.528C780.575 454.328 795.575 476.128 803.675 496.328C812.975 519.528 820.975 554.128 820.975 571.128C820.975 576.528 822.375 575.928 802.675 577.928C796.275 578.528 790.775 579.328 790.575 579.728C790.275 580.128 796.775 589.128 804.975 599.828C820.675 620.428 827.975 630.628 827.975 631.928C827.975 633.228 820.875 637.728 819.575 637.228C818.975 636.928 814.575 631.728 809.775 625.528C804.975 619.328 799.275 612.328 797.175 609.828L793.275 605.428L792.075 612.328C788.975 629.728 777.375 665.028 773.175 669.928C772.475 670.728 769.075 676.128 765.575 682.128C750.475 707.528 727.575 729.928 701.275 745.228C696.675 747.828 692.975 750.628 692.975 751.428C692.975 752.228 695.275 757.428 697.975 763.028C700.775 768.628 702.875 773.628 702.675 774.228C701.975 775.928 688.775 782.228 677.875 786.228C649.875 796.328 607.075 800.328 574.975 795.928C548.875 792.228 516.975 781.828 499.275 771.228C474.175 756.128 447.375 732.328 432.475 711.828C427.675 705.228 423.175 699.828 422.575 699.828C421.875 699.828 418.175 704.128 414.375 709.428C399.575 730.128 388.375 741.628 369.975 755.428C361.075 762.128 342.775 773.828 341.175 773.828C340.775 773.828 336.975 775.828 332.775 778.228C319.975 785.528 302.975 791.228 280.975 795.428C273.275 796.928 242.475 799.928 237.975 799.628C236.575 799.528 229.875 799.228 222.975 798.828ZM701.875 729.728C721.875 716.728 744.075 693.728 757.275 672.028C762.675 663.128 770.975 643.628 774.775 630.728C779.775 613.828 781.375 601.828 778.775 601.828C778.075 601.928 770.275 608.428 761.475 616.328C752.675 624.328 745.175 630.828 744.675 630.828C743.475 630.828 738.075 624.428 737.975 623.028C737.975 621.328 753.775 606.928 779.275 585.428C782.375 582.728 784.975 580.228 784.975 579.728C784.975 579.228 778.375 578.828 770.175 578.828H755.475L753.675 567.128C750.075 544.028 748.175 536.428 742.575 524.428C732.775 503.028 721.375 486.628 707.575 473.728C696.575 463.428 687.675 457.428 672.275 449.528C645.575 435.828 610.175 429.928 582.175 434.428C564.775 437.128 551.875 441.828 533.475 452.028C516.475 461.428 509.375 466.728 498.175 477.928C477.475 498.628 465.975 519.828 458.875 550.328C455.875 563.328 455.075 592.128 457.375 605.028C463.275 637.328 477.975 665.828 500.975 688.828C526.175 714.128 560.475 729.328 596.975 731.528C619.275 732.828 651.475 726.728 668.875 717.828C671.075 716.728 673.375 715.828 673.975 715.828C674.475 715.828 676.675 719.328 678.775 723.628C685.075 736.428 685.975 737.828 687.775 737.828C688.675 737.828 695.075 734.228 701.875 729.728ZM272.975 728.928C304.675 720.928 324.875 709.428 345.975 687.128C365.375 666.728 381.075 636.628 385.575 611.428C387.575 600.228 387.475 567.128 385.475 555.528C381.675 534.028 372.675 512.928 360.275 496.328C350.975 483.828 334.275 467.528 323.175 459.928L313.875 453.628L319.875 442.328L325.875 430.928L323.175 429.028C317.875 425.228 304.275 419.028 294.975 416.128C258.775 404.728 231.375 403.828 195.875 412.828C168.975 419.728 142.875 433.428 121.075 452.228C111.275 460.628 98.975 474.128 98.975 476.528C98.975 478.528 102.675 478.128 122.475 474.328C132.375 472.428 141.475 470.828 142.675 470.828C144.375 470.828 144.975 471.628 145.475 474.928C145.975 477.628 145.775 479.328 145.075 479.728C144.475 480.128 131.675 482.628 116.675 485.228C84.375 490.928 81.975 491.428 81.975 493.328C81.975 494.128 87.575 497.728 94.575 501.428C101.475 505.028 107.375 508.628 107.575 509.228C107.875 509.928 106.475 513.828 104.675 517.928C98.475 531.428 92.375 553.828 89.975 571.328C86.875 593.828 92.375 622.228 105.375 650.228C116.875 675.228 139.575 699.128 164.975 713.128C174.275 718.228 195.675 726.528 204.175 728.428C216.975 731.128 224.075 731.728 244.475 731.328C260.875 731.128 265.975 730.628 272.975 728.928ZM338.975 408.228C346.575 395.028 346.275 395.228 351.275 398.428C368.275 408.928 389.075 414.528 415.075 415.528C437.575 416.428 459.075 413.028 476.175 405.828C486.175 401.728 505.675 390.128 514.075 383.328C528.075 372.028 546.875 348.828 554.675 333.328C560.275 322.228 566.275 302.128 569.475 283.828C574.375 256.128 563.575 210.828 545.475 182.828C535.875 167.828 524.275 156.828 502.975 142.328C486.875 131.428 467.675 122.928 449.375 118.728C417.175 111.328 373.775 119.028 344.375 137.328C330.675 145.928 314.275 160.128 303.875 172.628L299.475 177.928L287.275 169.328C280.675 164.628 274.875 160.828 274.475 160.828C273.275 160.828 274.775 169.728 278.875 186.528C285.575 213.928 287.375 222.828 286.375 223.828C285.875 224.228 283.875 224.928 281.875 225.328L278.375 226.028L273.975 206.628C269.875 188.028 268.175 182.628 265.975 181.328C264.575 180.428 256.075 198.828 252.175 210.928C245.975 230.028 244.475 240.928 244.575 265.328C244.575 288.728 245.475 296.028 250.475 314.628C255.275 332.628 261.475 345.728 273.075 362.828C282.675 377.028 291.375 387.328 301.375 396.328C309.775 403.928 329.575 417.828 331.975 417.828C332.875 417.828 335.875 413.628 338.975 408.228Z" fill="#333333"/>
<path d="M222.975 798.828C194.575 797.228 170.675 790.728 143.775 777.228C116.575 763.428 100.975 752.128 83.375 733.428C73.975 723.528 61.975 708.128 57.475 700.328C55.975 697.628 53.675 694.028 52.375 692.328C49.075 687.828 41.675 672.528 37.675 661.728C30.375 642.328 26.775 626.728 23.975 602.228C22.675 590.628 22.675 566.128 23.975 565.328C24.475 565.028 24.975 561.928 24.975 558.628C24.975 555.228 25.375 551.128 25.975 549.428C26.475 547.728 27.875 542.328 28.975 537.328C31.375 526.328 37.775 506.528 41.675 497.828C47.875 484.028 50.475 478.928 51.575 478.528C52.075 478.228 57.975 481.128 64.575 484.928C75.875 491.428 79.375 492.728 80.275 491.128C80.675 490.328 78.875 472.028 75.375 442.128C74.375 433.728 73.875 426.528 74.275 426.228C74.675 425.828 76.875 425.428 79.175 425.428L83.375 425.328L85.775 445.828C87.075 457.128 88.375 466.628 88.875 467.128C89.275 467.528 94.475 462.528 100.575 456.028C132.775 421.228 167.075 403.328 215.075 396.228C228.575 394.228 257.575 394.828 269.975 397.328C274.075 398.128 279.775 399.128 282.475 399.428L287.475 400.128L283.875 396.228C272.975 384.528 258.775 363.928 252.975 351.328C239.375 322.028 234.175 301.428 233.275 273.328C232.475 248.728 234.275 234.328 241.175 211.328C243.375 203.728 252.675 180.128 254.275 178.128C254.975 177.228 254.675 176.828 253.375 176.828C251.875 176.828 227.375 184.028 213.775 188.528C212.475 188.928 211.775 188.028 210.875 184.928C210.175 182.428 209.975 180.428 210.575 179.928C211.075 179.528 218.475 177.028 226.975 174.428C261.875 163.728 270.975 160.428 270.975 158.828C270.975 158.028 266.475 154.028 261.075 150.028C255.675 146.028 250.275 141.728 248.975 140.328L246.775 138.028L251.075 132.128C256.675 124.528 279.375 102.228 289.475 94.4283C308.175 79.9283 333.175 67.1283 356.475 60.0283C380.175 52.8283 387.875 51.7283 417.375 51.1283C438.475 50.8283 442.775 50.9283 452.875 52.8283C478.775 57.4283 497.975 63.8283 522.475 76.2283C555.775 93.1283 584.575 119.028 603.075 148.828C609.475 159.128 621.975 185.028 625.275 194.828C632.875 217.128 636.275 237.728 636.275 262.328C636.275 297.928 630.875 326.328 618.975 352.828C616.175 358.828 613.975 364.228 613.975 364.728C613.975 365.928 617.275 366.528 627.475 367.328C639.075 368.228 658.675 372.428 672.775 376.928C704.375 387.228 737.675 408.028 758.475 430.528C780.575 454.328 795.575 476.128 803.675 496.328C812.975 519.528 820.975 554.128 820.975 571.128C820.975 576.528 822.375 575.928 802.675 577.928C796.275 578.528 790.775 579.328 790.575 579.728C790.275 580.128 796.775 589.128 804.975 599.828C820.675 620.428 827.975 630.628 827.975 631.928C827.975 633.228 820.875 637.728 819.575 637.228C818.975 636.928 814.575 631.728 809.775 625.528C804.975 619.328 799.275 612.328 797.175 609.828L793.275 605.428L792.075 612.328C788.975 629.728 777.375 665.028 773.175 669.928C772.475 670.728 769.075 676.128 765.575 682.128C750.475 707.528 727.575 729.928 701.275 745.228C696.675 747.828 692.975 750.628 692.975 751.428C692.975 752.228 695.275 757.428 697.975 763.028C700.775 768.628 702.875 773.628 702.675 774.228C701.975 775.928 688.775 782.228 677.875 786.228C649.875 796.328 607.075 800.328 574.975 795.928C548.875 792.228 516.975 781.828 499.275 771.228C474.175 756.128 447.375 732.328 432.475 711.828C427.675 705.228 423.175 699.828 422.575 699.828C421.875 699.828 418.175 704.128 414.375 709.428C399.575 730.128 388.375 741.628 369.975 755.428C361.075 762.128 342.775 773.828 341.175 773.828C340.775 773.828 336.975 775.828 332.775 778.228C319.975 785.528 302.975 791.228 280.975 795.428C273.275 796.928 242.475 799.928 237.975 799.628C236.575 799.528 229.875 799.228 222.975 798.828ZM701.875 729.728C721.875 716.728 744.075 693.728 757.275 672.028C762.675 663.128 770.975 643.628 774.775 630.728C779.775 613.828 781.375 601.828 778.775 601.828C778.075 601.928 770.275 608.428 761.475 616.328C752.675 624.328 745.175 630.828 744.675 630.828C743.475 630.828 738.075 624.428 737.975 623.028C737.975 621.328 753.775 606.928 779.275 585.428C782.375 582.728 784.975 580.228 784.975 579.728C784.975 579.228 778.375 578.828 770.175 578.828H755.475L753.675 567.128C750.075 544.028 748.175 536.428 742.575 524.428C732.775 503.028 721.375 486.628 707.575 473.728C696.575 463.428 687.675 457.428 672.275 449.528C645.575 435.828 610.175 429.928 582.175 434.428C564.775 437.128 551.875 441.828 533.475 452.028C516.475 461.428 509.375 466.728 498.175 477.928C477.475 498.628 465.975 519.828 458.875 550.328C455.875 563.328 455.075 592.128 457.375 605.028C463.275 637.328 477.975 665.828 500.975 688.828C526.175 714.128 560.475 729.328 596.975 731.528C619.275 732.828 651.475 726.728 668.875 717.828C671.075 716.728 673.375 715.828 673.975 715.828C674.475 715.828 676.675 719.328 678.775 723.628C685.075 736.428 685.975 737.828 687.775 737.828C688.675 737.828 695.075 734.228 701.875 729.728ZM272.975 728.928C304.675 720.928 324.875 709.428 345.975 687.128C365.375 666.728 381.075 636.628 385.575 611.428C387.575 600.228 387.475 567.128 385.475 555.528C381.675 534.028 372.675 512.928 360.275 496.328C350.975 483.828 334.275 467.528 323.175 459.928L313.875 453.628L319.875 442.328L325.875 430.928L323.175 429.028C317.875 425.228 304.275 419.028 294.975 416.128C258.775 404.728 231.375 403.828 195.875 412.828C168.975 419.728 142.875 433.428 121.075 452.228C111.275 460.628 98.975 474.128 98.975 476.528C98.975 478.528 102.675 478.128 122.475 474.328C132.375 472.428 141.475 470.828 142.675 470.828C144.375 470.828 144.975 471.628 145.475 474.928C145.975 477.628 145.775 479.328 145.075 479.728C144.475 480.128 131.675 482.628 116.675 485.228C84.375 490.928 81.975 491.428 81.975 493.328C81.975 494.128 87.575 497.728 94.575 501.428C101.475 505.028 107.375 508.628 107.575 509.228C107.875 509.928 106.475 513.828 104.675 517.928C98.475 531.428 92.375 553.828 89.975 571.328C86.875 593.828 92.375 622.228 105.375 650.228C116.875 675.228 139.575 699.128 164.975 713.128C174.275 718.228 195.675 726.528 204.175 728.428C216.975 731.128 224.075 731.728 244.475 731.328C260.875 731.128 265.975 730.628 272.975 728.928ZM338.975 408.228C346.575 395.028 346.275 395.228 351.275 398.428C368.275 408.928 389.075 414.528 415.075 415.528C437.575 416.428 459.075 413.028 476.175 405.828C486.175 401.728 505.675 390.128 514.075 383.328C528.075 372.028 546.875 348.828 554.675 333.328C560.275 322.228 566.275 302.128 569.475 283.828C574.375 256.128 563.575 210.828 545.475 182.828C535.875 167.828 524.275 156.828 502.975 142.328C486.875 131.428 467.675 122.928 449.375 118.728C417.175 111.328 373.775 119.028 344.375 137.328C330.675 145.928 314.275 160.128 303.875 172.628L299.475 177.928L287.275 169.328C280.675 164.628 274.875 160.828 274.475 160.828C273.275 160.828 274.775 169.728 278.875 186.528C285.575 213.928 287.375 222.828 286.375 223.828C285.875 224.228 283.875 224.928 281.875 225.328L278.375 226.028L273.975 206.628C269.875 188.028 268.175 182.628 265.975 181.328C264.575 180.428 256.075 198.828 252.175 210.928C245.975 230.028 244.475 240.928 244.575 265.328C244.575 288.728 245.475 296.028 250.475 314.628C255.275 332.628 261.475 345.728 273.075 362.828C282.675 377.028 291.375 387.328 301.375 396.328C309.775 403.928 329.575 417.828 331.975 417.828C332.875 417.828 335.875 413.628 338.975 408.228Z" stroke="white" stroke-width="24" mask="url(#path-1-outside-1_608_6378)"/>
</svg>
